<svg width="32" height="32" viewBox="0 0 32 32" fill="none" xmlns="http://www.w3.org/2000/svg">
<g clip-path="url(#clip0_191_581)">
<path d="M24.5 0H7.5C3.35786 0 0 3.35786 0 7.5V24.5C0 28.6421 3.35786 32 7.5 32H24.5C28.6421 32 32 28.6421 32 24.5V7.5C32 3.35786 28.6421 0 24.5 0Z" fill="#8C8C8C"/>
<path d="M11.2223 24.2408C10.3175 23.5291 9.35226 22.8469 8.69289 21.8862C7.30514 20.1919 6.23664 18.2303 5.50614 16.169C5.06464 14.8285 4.91351 13.3915 4.34426 12.1028C3.74889 11.1669 4.44639 10.1439 5.47151 9.8464C5.92789 9.75878 6.73051 9.32827 5.76176 9.6359C4.89326 10.2731 4.80926 9.05752 5.69976 8.98052C6.30751 8.89977 6.53126 8.40215 6.32351 7.95427C5.67101 7.52877 7.90551 7.06115 6.78126 6.4264C5.61001 5.16265 8.41951 4.91952 7.72626 6.35452C7.56039 7.45815 9.68951 6.15227 9.19551 7.42665C9.69764 8.03865 11.0758 7.5659 11.0415 8.42453C11.773 8.47478 12.024 9.09015 12.7106 9.1374C13.4223 9.45877 14.7123 9.71202 14.9544 10.5139C14.2484 11.0729 12.6136 9.3594 12.535 10.9065C12.7483 13.1921 12.694 15.5467 13.5303 17.7232C13.9258 19.041 14.8846 20.0785 15.7505 21.1049C16.5791 22.1102 17.7014 22.8179 18.8453 23.4138C19.8488 23.887 20.9305 24.2009 22.0241 24.3978C22.4676 24.0585 23.2508 22.7973 23.9428 23.3291C23.9755 23.9268 22.5694 24.5784 23.8765 24.5123C24.6441 24.2808 25.1765 25.106 25.8086 24.3617C26.391 25.0514 28.2291 23.9209 27.8148 25.3309C27.2545 25.6924 26.4373 25.4739 25.8761 25.9711C24.9508 25.509 24.2141 26.3848 23.1898 26.274C22.0521 26.4778 20.8948 26.56 19.7414 26.5618C17.8493 26.4123 15.917 26.3493 14.117 25.6905C13.103 25.3959 12.1134 24.8184 11.2223 24.2408ZM12.8203 24.9331C13.8104 25.3614 14.7786 25.8126 15.8638 25.9488C17.5854 26.1883 19.3633 26.5565 21.091 26.2206C20.309 25.8675 19.5006 26.3581 18.7215 25.9681C17.7873 26.1691 16.7845 25.9169 15.8348 25.7927C14.7545 25.3115 13.5889 24.9808 12.5774 24.3561C11.3134 23.8945 13.231 24.9483 13.5724 25.0335C14.3625 25.482 12.7035 24.8037 12.4696 24.6173C11.8079 24.246 11.7235 24.3236 12.4041 24.7006C12.5411 24.7808 12.6766 24.8649 12.8203 24.9331ZM10.9361 23.6017C11.8956 23.9572 10.9319 22.927 10.4923 22.9868C10.2974 22.6489 9.74801 22.4354 10.1356 22.2538C9.43839 22.4959 9.40526 21.3334 9.07751 21.4995C8.34001 21.2667 8.79051 20.4415 7.91189 19.9349C7.83164 19.401 7.03901 18.938 6.78614 18.1328C6.67451 17.7205 5.89064 16.5365 6.37214 17.6384C6.78214 18.6991 7.50351 19.6075 8.10389 20.5148C8.57014 21.3786 9.12051 22.2815 9.96951 22.8205C10.2558 23.095 10.532 23.5157 10.9361 23.6017ZM8.17201 20.5669C8.34751 20.8805 8.20551 20.422 8.17201 20.5669ZM12.0853 24.0278C12.2978 23.9326 11.7796 23.9079 12.0853 24.0278ZM12.6061 24.2178C12.5521 23.9554 12.3683 24.3644 12.6061 24.2178ZM13.258 24.4897C13.5684 24.1942 12.7796 24.3034 13.258 24.4897ZM14.3755 25.1125C14.5641 24.8336 13.7718 25.0073 14.3755 25.1125ZM12.2298 23.6166C12.7118 23.3048 11.607 23.6124 12.2298 23.6166ZM12.7188 23.8605C12.7051 23.6957 12.5445 23.9344 12.7188 23.8605ZM15.1633 25.3863C15.5561 25.6343 17.4579 25.9298 16.2671 25.4879C16.0679 25.5299 14.059 24.9198 15.1633 25.3863ZM11.2826 22.3639C11.2444 22.1985 10.6726 22.1814 11.2826 22.3639ZM12.4206 23.0271C12.7168 22.8206 11.8059 22.8678 12.4206 23.0271ZM13.3778 23.614C13.8028 23.4538 12.6884 23.453 13.3778 23.614ZM10.8195 21.8596C11.2808 22.2133 12.6791 21.9049 11.5258 21.6485C11.0008 21.3687 9.81751 21.1771 10.624 21.8173L10.8195 21.8596ZM14.0261 23.8167C14.2181 23.4894 13.2206 23.6298 14.0261 23.8167ZM13.0518 23.0423C14.1793 23.3613 12.1036 22.3293 12.7735 22.9249L12.922 22.9921L13.0518 23.0423ZM15.0053 24.1714C16.0731 24.1817 14.0408 24.0242 15.0053 24.1714ZM10.4086 21.2418C10.367 21.0429 10.1451 21.2585 10.4086 21.2418ZM16.8115 25.1847C16.84 24.8254 16.4631 25.4519 16.8115 25.1847ZM12.231 22.3578C12.1664 22.1686 11.8973 22.35 12.231 22.3578ZM10.51 21.117C11.123 21.0802 9.67064 20.8469 10.51 21.117ZM8.47126 19.7992C8.39501 19.5053 7.80414 19.2709 8.47126 19.7992ZM13.8235 23.1959C13.7706 23.2239 13.7111 23.0678 13.8235 23.1959ZM17.1549 25.2403C17.1443 25.0445 16.9735 25.3143 17.1549 25.2403ZM13.5286 22.8914C13.5886 22.6393 13.0059 22.815 13.5286 22.8914ZM11.0468 21.3185C11.5029 21.2697 10.3161 21.0102 11.0468 21.3185ZM15.245 23.9273C15.9558 23.6456 14.5524 23.7898 15.245 23.9273ZM13.0613 22.4449C13.8804 22.5505 12.0866 21.8878 12.8815 22.3855L13.0613 22.4449ZM15.908 24.1953C16.6728 23.738 16.4206 25.2658 17.2055 24.3243C17.9796 23.759 16.5369 25.0231 17.491 24.4251C18.181 23.9636 19.2001 24.6439 19.844 24.8658C20.307 24.843 20.757 25.2662 21.2318 25.0088C22.1454 24.7627 19.445 24.6438 20.1529 24.2071C19.3168 24.4504 18.6991 23.917 18.2878 23.3815C17.3499 23.1649 16.2656 22.6855 15.7976 21.8556C15.6068 21.544 16.0733 21.8995 15.6329 21.3902C15.0678 20.8875 14.7856 20.317 14.4063 19.706C13.953 19.4643 13.9003 18.7526 13.8545 19.6821C13.858 19.0955 13.3073 18.7006 13.1729 18.8648C13.1705 18.2999 13.7623 18.583 13.348 18.165C13.2589 17.5795 12.9653 16.9693 12.877 16.3081C12.7399 15.9895 12.8576 15.307 12.409 16.0284C12.2455 16.7909 12.3548 15.0915 12.6089 15.6519C12.9426 15.08 12.4891 15.1473 12.4706 15.2267C12.6879 14.7443 12.6081 14.0599 12.4139 14.3209C12.5296 13.8095 12.5969 12.439 12.2405 12.6819C12.4565 12.1472 12.6501 10.235 11.7125 10.964C11.3325 10.9694 10.6746 11.102 10.3635 11.2566C11.3388 11.7941 10.2655 11.4508 9.86851 11.3654C9.81676 11.8629 9.42351 11.6476 8.93226 11.6525C9.71689 11.7496 8.55026 12.455 8.10014 12.181C7.51551 12.4604 8.60464 13.1578 8.11176 13.3734C8.17239 13.6985 7.21626 13.256 7.29139 14.0068C6.72389 13.768 7.21326 14.8973 7.49714 14.5154C8.46239 14.7766 8.17664 15.3721 8.20126 15.9379C8.04389 16.2676 7.42476 15.163 8.06326 15.2143C7.55951 14.3959 7.50601 14.9184 7.08739 15.2986C6.99001 15.3261 8.15526 15.8395 7.42401 16.0934C8.06726 16.1926 8.08564 16.7555 8.21651 17.1118C8.60326 17.5145 8.52401 16.6671 8.98676 17.151C8.69401 16.7199 7.43601 15.9361 8.44889 16.1875C8.44351 15.7535 8.26564 15.4036 8.57601 15.4121C8.88326 14.8556 8.25414 16.7843 8.94676 16.077C9.13851 15.9933 9.18601 15.5198 9.53076 16.1217C10.0313 16.6142 9.71151 16.971 9.00539 16.52C9.13164 16.9487 9.95001 17.1018 9.79626 17.772C9.95926 18.3614 10.1874 18.1444 10.3861 18.1103C10.5421 18.683 10.6306 18.2619 10.638 17.9893C11.3521 18.1421 11.1849 18.5643 11.4083 18.8591C11.9003 19.0813 10.704 17.3536 11.5488 18.3396C12.4375 19.1421 11.882 19.4771 11.0845 19.3485C11.5893 19.3078 11.752 20.031 12.3835 20.0056C12.9593 20.2795 13.3491 21.3317 12.3566 20.8937C12.0124 20.5833 10.7941 20.2004 11.7891 20.7908C12.7081 21.2163 13.438 21.4709 14.3244 22.005C14.9586 22.4579 15.2326 22.9765 15.4731 23.0791C14.94 23.3338 13.8665 22.8759 14.6636 22.7355C14.1665 22.645 13.6073 22.3935 14.0835 23.013C14.4884 23.3512 15.5181 23.3153 15.7028 23.3535C15.5463 23.6984 15.2778 23.7258 15.7091 23.7525C15.2279 24.009 15.8634 24.0486 15.908 24.1953ZM14.9239 21.416C14.631 21.1098 14.5554 20.5361 14.8719 21.0353C15.0341 21.1004 15.3919 21.9725 14.9239 21.416ZM18.129 23.4519C18.3116 23.44 18.1343 23.5907 18.129 23.4519ZM14.4615 20.6651C14.5674 21.0221 14.4503 20.2021 14.4615 20.6651ZM14.143 20.2365C14.6073 20.438 13.7746 19.5249 14.143 20.2365ZM10.2826 17.5721C10.499 17.5144 10.3891 17.9423 10.2826 17.5721ZM13.355 19.2374C13.5111 19.6562 13.4879 18.7384 13.355 19.2374ZM11.1845 17.7283C11.5045 17.9865 11.0315 17.4529 11.1845 17.7283ZM13.0473 18.3254C12.6983 17.5435 13.2943 17.8983 13.1244 18.4535L13.0473 18.3254ZM9.83489 16.183C9.67889 15.9267 9.42089 15.174 9.50389 14.9443C9.57914 15.3184 10.2996 16.5544 9.85739 15.4563C9.36864 14.5358 10.4415 15.7551 10.5519 15.9846C10.6033 16.2131 10.2504 15.9223 10.4894 16.4579C10.0534 15.8481 10.232 16.7947 9.83489 16.183ZM8.84214 15.499C9.06939 15.9079 8.88301 14.9026 8.84214 15.499ZM9.28876 15.6526C9.65001 16.2801 9.50176 15.2026 9.28876 15.6526ZM8.21451 14.8216C7.84489 14.4544 7.57739 14.1159 8.23176 14.5938C8.48389 14.6036 7.67164 13.8238 8.29251 14.3461C8.94539 14.4651 8.61501 15.4166 8.21451 14.8216ZM8.77876 14.8069C8.99339 14.5943 8.89276 15.0164 8.77876 14.8069ZM9.12601 14.9183C9.52101 15.174 8.80051 14.3083 9.12601 14.9183ZM8.43576 14.2586C7.36126 13.3024 9.78589 14.7586 8.61126 14.4359L8.43576 14.2586ZM11.5144 16.0474C11.0494 15.7686 11.3911 14.0846 11.5496 15.2364C12.0018 15.0901 11.5246 15.8312 11.8619 15.8243C11.8088 16.2918 11.6579 16.4599 11.5144 16.0474ZM12.653 16.7204C12.749 17.0674 12.6986 16.2129 12.653 16.7204ZM12.4553 16.5249C12.5065 16.3082 12.4605 16.7803 12.4553 16.5249ZM8.64651 13.9444C7.95626 12.992 10.6528 14.9078 9.08864 14.186C8.92526 14.1433 8.72864 14.128 8.64651 13.9444ZM10.8393 15.107C10.9851 15.2399 10.774 14.3052 10.8393 15.107ZM12.5041 16.175C12.6329 15.7181 12.5138 16.4771 12.5041 16.175ZM8.75226 13.5809C9.16251 13.4932 10.4525 14.3015 9.26789 13.8118C9.13626 13.6662 8.85564 13.7323 8.75226 13.5809ZM12.2754 15.3369C12.3191 14.5169 12.5203 14.847 12.2769 15.4543L12.2754 15.3369ZM9.05764 13.2956C9.22489 13.0504 8.61389 12.1869 9.14576 12.9859C9.37551 13.1685 9.81101 13.2918 9.42651 13.3686C10.0313 13.9021 9.27889 13.5131 9.05764 13.2956ZM12.1011 15.0808C12.2166 14.1467 12.203 15.628 12.1011 15.0808ZM8.70864 12.4329C8.83614 12.3783 8.77601 12.603 8.70864 12.4329ZM9.50239 12.9054C9.87926 13.3835 9.70676 12.4766 9.50239 12.9054ZM11.7416 14.151C11.7839 14.3905 11.7395 13.9864 11.7416 14.151ZM11.612 13.8639C11.9011 14.2699 11.3011 13.0972 11.612 13.8639ZM11.4211 13.3611C11.5984 13.7591 11.369 13.0443 11.4211 13.3611ZM11.7318 12.8563C11.5184 12.4804 12.001 11.2 12.0549 11.9942C11.8299 12.6129 11.9899 12.959 12.147 12.1291C12.437 11.4759 12.0844 13.418 11.7318 12.8563ZM12.0509 10.952C12.1439 10.8379 12.0715 11.0895 12.0509 10.952ZM11.5179 21.4548C11.5338 21.525 11.3915 21.3444 11.5179 21.4548ZM12.6159 22.0103C13.2266 22.1669 13.2235 21.9152 12.6715 21.8404C12.3746 21.5642 11.4378 21.2713 12.2763 21.8062C12.3319 21.9468 12.5073 21.9435 12.6159 22.0103ZM10.4474 20.5699C10.7839 20.8208 11.7149 21.281 10.9268 20.6654C11.1924 20.3566 10.4181 20.1924 10.675 19.9859C10.0216 19.5861 10.1596 19.6217 10.6173 19.6343C9.83226 19.2833 10.7306 19.3095 10.6884 19.1298C10.3856 19.0699 9.18464 18.5959 9.89114 19.1686C9.17289 18.8025 9.71989 19.3052 9.50289 19.252C8.76851 19.0517 10.157 19.8113 9.38626 19.6228C9.80751 19.9566 10.5204 20.478 9.56439 19.9762C9.43839 20.1574 10.2485 20.4323 10.4474 20.5699ZM11.5958 21.2297C12.9921 21.6795 10.9111 20.6799 11.5958 21.2297ZM17.4744 24.7909C17.4924 24.5139 17.2836 25.0273 17.4744 24.7909ZM18.0786 25.0453C18.4008 24.733 18.0918 25.5425 18.6125 24.9688C18.6181 24.5581 18.5964 24.3155 18.0141 24.8144C17.8536 24.9034 17.782 25.2819 18.0786 25.0453ZM8.48739 19.0218C8.38839 18.6328 7.79389 18.6348 8.48739 19.0218ZM9.13251 19.4445C8.89301 19.0473 8.27764 19.0849 9.13251 19.4445ZM12.803 21.6581C13.1614 21.9764 14.449 21.8917 13.2384 21.6973C13.059 21.4322 12.0998 21.496 12.803 21.6581ZM17.8489 24.7743C18.4004 24.3115 17.3144 24.9808 17.8489 24.7743ZM18.9959 25.5625C18.9994 25.414 18.7583 25.6276 18.9959 25.5625ZM18.9978 25.3547C19.6085 24.7075 18.4059 25.3929 18.9978 25.3547ZM6.90051 17.6931C6.37989 16.9504 6.57676 16.6165 6.07489 16.0101C5.97989 15.5464 5.21364 14.4939 5.67864 15.6089C6.10439 16.2609 6.23101 17.2705 6.90051 17.6931ZM18.8061 25.1489C19.9298 24.4226 18.3449 24.8325 18.8061 25.1489ZM19.6639 25.485C20.2266 25.0018 19.308 25.3839 19.6639 25.485ZM8.29614 18.2008C8.45714 17.9612 7.88014 18.17 8.29614 18.2008ZM19.4848 25.2555C20.0296 24.9043 19.3593 24.9581 19.386 25.2879L19.4848 25.2555ZM12.0906 20.595C12.0719 20.3578 11.803 20.6151 12.0906 20.595ZM12.5476 20.8579C12.4024 20.5643 12.3244 20.904 12.5476 20.8579ZM20.359 25.4929C21.057 24.9894 19.9359 25.3965 20.2125 25.5883L20.359 25.4929ZM20.0918 25.3638C20.6604 24.8873 19.4914 25.5749 20.0918 25.3638ZM21.4574 26.2731C21.8391 26.0175 20.9935 26.1904 21.4574 26.2731ZM8.64614 18.0279C9.15801 18.1427 10.6913 19.2883 9.78676 18.1071C9.32339 17.97 9.60126 16.8375 9.12876 17.038C9.44589 17.5679 9.38964 17.7934 8.72376 17.4594C7.88676 17.0508 8.25339 17.6618 8.41689 17.8303C8.19401 17.8809 8.71176 18.0237 8.64614 18.0279ZM6.31476 16.1866C6.40639 15.8078 5.47114 14.102 5.87314 15.332C6.01814 15.5896 6.00351 16.0779 6.31476 16.1866ZM10.594 18.8249C10.5815 18.7938 10.3305 18.6045 10.594 18.8249ZM11.243 18.976C11.2426 18.5745 10.5256 18.813 11.243 18.976ZM16.8664 22.521C16.7591 22.2468 16.4424 22.5146 16.8664 22.521ZM17.1364 22.7183C17.0965 22.5648 16.9806 22.7479 17.1364 22.7183ZM19.3653 24.1222C19.5796 23.9638 19.0978 24.102 19.3653 24.1222ZM7.47939 16.484C8.09251 16.2465 6.82239 16.3146 7.47939 16.484ZM16.3713 22.086C16.3645 21.689 15.9804 22.1844 16.3713 22.086ZM7.23714 15.9194C7.63089 15.7864 6.87276 15.8318 7.23714 15.9194ZM8.38026 16.4733C8.37314 16.3428 8.25939 16.5226 8.38026 16.4733ZM22.3241 25.0238C22.8306 24.9212 23.9848 25.2815 24.1714 24.8895C23.5563 24.8745 22.0434 24.4555 21.9718 24.9895L22.1065 25.0107L22.3241 25.0238ZM8.74364 16.5648C8.75239 16.1625 8.42989 16.5498 8.74364 16.5648ZM5.73789 14.4798C5.60126 13.7133 5.21864 14.3638 5.73789 14.4798ZM6.45464 14.6599C6.46339 14.4138 5.79851 14.4384 6.45464 14.6599ZM6.86426 14.861C6.77151 14.9823 6.74576 14.7651 6.86426 14.861ZM9.44164 16.5144C9.56289 16.403 9.15426 16.4319 9.44164 16.5144ZM6.59126 14.4074C6.52201 13.8285 5.76114 14.3207 6.59126 14.4074ZM5.12176 13.4539C5.10089 13.1866 4.97851 13.5546 5.12176 13.4539ZM5.34039 13.2888C5.30464 12.972 5.15264 13.329 5.34039 13.2888ZM6.54814 14.0097C7.05876 13.809 5.61789 13.5948 6.44376 13.9718L6.54814 14.0097ZM22.7116 23.9937C23.0385 23.694 22.2963 23.901 22.7116 23.9937ZM24.6644 25.0059C24.7954 24.6184 24.3345 25.0569 24.6644 25.0059ZM6.67164 13.3766C6.72539 13.0019 6.26664 13.451 6.67164 13.3766ZM4.95339 12.2254C4.86101 11.6963 4.87364 10.7674 5.75651 11.0813C4.57801 11.3153 6.57226 12.5461 6.32039 11.5744C6.81601 11.5986 7.28989 11.2815 7.02976 11.7628C8.00614 11.6549 8.68314 10.8083 9.62626 10.9269C10.3609 10.8296 11.1641 10.7559 11.9558 10.4603C12.6066 10.4133 13.2333 9.71252 12.8765 9.29715C11.9889 9.22215 11.0596 9.33315 10.0785 9.52815C8.99139 9.75415 8.00389 10.1835 6.90689 10.3679C5.83764 10.5115 7.12189 10.7635 6.81564 10.8198C6.25776 11.0133 7.48101 11.1439 6.74339 11.3479C6.28776 11.2613 5.81351 11.1048 6.00814 10.6247C4.98389 10.7575 4.08401 11.1827 4.89314 12.2249L4.95339 12.2254ZM7.42126 10.9685C7.66139 10.0838 8.70789 11.6964 7.81501 11.086C7.70826 11.0062 7.53289 10.941 7.42126 10.9685ZM7.46801 10.5395C7.81464 10.2814 7.65226 10.6843 7.46801 10.5395ZM7.90801 10.5465C7.93939 10.1395 8.91551 10.762 8.06901 10.6931L7.90801 10.5465ZM8.51014 10.3045C8.73001 10.0476 8.57326 10.533 8.51014 10.3045ZM8.66414 10.2014C9.03014 9.76152 10.7371 9.92065 9.48776 10.1585C9.15276 9.9064 8.89614 10.3071 8.66401 10.2014H8.66414ZM10.8918 9.85802C11.9985 10.2849 10.8361 8.65652 10.8918 9.85802ZM11.5239 9.85452C11.755 9.24902 12.4206 9.61152 11.6308 9.7329C11.648 9.79727 11.6076 10.0454 11.5239 9.85452ZM6.42239 13.0659C7.11289 12.643 5.68939 12.699 6.42239 13.0659ZM6.93289 13.2077C7.17501 12.9503 6.40689 13.1033 6.93289 13.2077ZM5.42864 12.1402C5.82314 11.837 4.96176 12.0249 5.42864 12.1402ZM25.817 24.8951C25.8285 24.5435 25.5155 25.0535 25.817 24.8951ZM23.7454 23.4813C23.8043 23.0765 23.4791 23.5167 23.7454 23.4813ZM26.3868 25.0314C26.9384 25.0333 28.0581 24.8601 26.8579 24.8606C26.6695 24.89 25.7605 24.8838 26.3868 25.0314ZM7.38201 12.9595C7.82839 12.9289 8.08051 12.467 7.29576 12.4936C6.07939 12.3678 8.36876 12.9101 7.13951 12.755C6.97451 12.8644 7.37239 12.9898 7.38201 12.9595ZM7.77514 13.1585C7.72851 12.8719 7.63714 13.3109 7.77514 13.1585ZM8.24151 11.9149C8.43526 11.6746 7.97351 11.8506 8.24151 11.9149ZM6.75689 9.43315C7.55364 9.16215 8.64314 8.85752 9.01939 9.56665C8.63651 9.10577 8.86489 8.65215 9.22639 9.3259C9.73776 10.0076 9.99376 9.0159 9.66114 8.78715C10.0401 9.25815 10.4711 9.48065 9.91489 8.81702C10.5195 8.08977 8.70451 8.91215 8.29201 8.9039C8.09351 8.99302 6.24276 9.3759 6.75689 9.43315ZM7.22376 8.5389C7.67814 8.1959 8.79539 8.7429 8.07851 8.19802C8.00839 8.13615 6.50851 8.61115 7.22376 8.5389ZM8.88039 8.60727C9.41214 8.6209 8.65101 7.8929 9.28464 8.22277C9.18064 7.88277 8.54689 7.81902 8.23714 7.68327C8.06176 7.99402 8.59376 8.6114 8.88039 8.60727ZM7.51426 7.10352C7.69826 6.85415 7.19176 7.2299 7.51426 7.10352ZM8.19139 7.26552C9.04839 7.1519 7.97289 6.89652 8.01864 7.2564L8.19139 7.26552ZM6.92714 6.2764C6.32364 5.48865 8.06189 6.40877 7.44889 5.5839C6.93289 5.17315 6.43701 6.0464 6.92714 6.2764ZM14.6711 10.4475C14.9479 9.9569 13.5285 9.78628 14.4846 10.2737C14.5728 10.303 14.5528 10.4815 14.6711 10.4475Z" fill="white"/>
</g>
<defs>
<clipPath id="clip0_191_581">
<rect width="32" height="32" fill="white"/>
</clipPath>
</defs>
</svg>
