<svg width="20" height="20" viewBox="0 0 20 20" fill="none" xmlns="http://www.w3.org/2000/svg">
<path d="M0.600068 8.59007L6.38007 2.80007L8.07007 4.50007C7.83007 5.35007 8.22007 6.28007 9.00007 6.73007V12.2701C8.40007 12.6101 8.00007 13.2601 8.00007 14.0001C8.00007 14.5305 8.21078 15.0392 8.58586 15.4143C8.96093 15.7894 9.46964 16.0001 10.0001 16.0001C10.5305 16.0001 11.0392 15.7894 11.4143 15.4143C11.7894 15.0392 12.0001 14.5305 12.0001 14.0001C12.0001 13.2601 11.6001 12.6101 11.0001 12.2701V7.41007L13.0701 9.50007C13.0001 9.65007 13.0001 9.82007 13.0001 10.0001C13.0001 10.5305 13.2108 11.0392 13.5859 11.4143C13.9609 11.7894 14.4696 12.0001 15.0001 12.0001C15.5305 12.0001 16.0392 11.7894 16.4143 11.4143C16.7894 11.0392 17.0001 10.5305 17.0001 10.0001C17.0001 9.46964 16.7894 8.96093 16.4143 8.58586C16.0392 8.21078 15.5305 8.00007 15.0001 8.00007C14.8201 8.00007 14.6501 8.00007 14.5001 8.07007L11.9301 5.50007C12.0542 5.0369 12.0061 4.54442 11.7946 4.11406C11.5831 3.6837 11.2226 3.34472 10.7801 3.16007C10.3501 3.00007 9.90007 2.96007 9.50007 3.07007L7.80007 1.38007L8.59007 0.600068C9.37007 -0.189932 10.6301 -0.189932 11.4101 0.600068L19.4001 8.59007C20.1901 9.37007 20.1901 10.6301 19.4001 11.4101L11.4101 19.4001C10.6301 20.1901 9.37007 20.1901 8.59007 19.4001L0.600068 11.4101C-0.189932 10.6301 -0.189932 9.37007 0.600068 8.59007Z" fill="#8C8C8C"/>
</svg>
