<svg width="24" height="24" viewBox="0 0 24 24" fill="none" xmlns="http://www.w3.org/2000/svg">
<g clip-path="url(#clip0_191_588)">
<mask id="mask0_191_588" style="mask-type:luminance" maskUnits="userSpaceOnUse" x="0" y="0" width="24" height="24">
<path d="M0 0H24V24H0V0Z" fill="white"/>
</mask>
<g mask="url(#mask0_191_588)">
<path d="M13.3008 5.601C12.6728 4.073 12.7608 2.354 13.6678 0.971L14.3458 0C13.0918 2.35 14.2858 5.236 16.2058 6.749C16.7196 7.15111 17.2923 7.47154 17.9038 7.699C18.0678 7.759 18.2538 7.823 18.4238 7.866C20.5698 8.406 22.3188 8.033 23.3598 6.477C23.3278 6.525 23.2868 6.601 23.2348 6.697C22.7708 7.557 21.4128 10.074 17.4748 9.284C17.3998 9.269 17.3278 9.244 17.2558 9.221L17.1918 9.199L17.1458 9.184C17.1246 9.17666 17.1033 9.16966 17.0818 9.163C17.0235 9.14293 16.9655 9.12192 16.9078 9.1C15.3228 8.496 13.9638 7.224 13.3008 5.601Z" fill="#8C8C8C"/>
<path d="M8.11981 2.96598C6.58281 5.26098 6.66681 8.33398 7.86581 10.762C8.0875 11.2138 8.34219 11.6486 8.62781 12.063C8.83681 12.376 9.06681 12.723 9.33581 12.965C9.44681 13.092 9.56281 13.215 9.68081 13.336L9.74881 13.406L9.77181 13.429C9.8912 13.5497 10.0136 13.6674 10.1388 13.782L10.1398 13.783L10.1418 13.785C10.293 13.9217 10.448 14.0541 10.6068 14.182L10.6468 14.214C10.7868 14.326 10.9298 14.436 11.0768 14.541L11.0828 14.545L11.0898 14.55C11.1368 14.584 11.1848 14.617 11.2328 14.649L11.2858 14.685C11.3172 14.7057 11.3482 14.7271 11.3788 14.749C11.4838 14.819 11.5898 14.886 11.6978 14.952L11.7278 14.969L11.7428 14.979C11.8586 15.048 11.9756 15.115 12.0938 15.18L12.1248 15.196L12.1648 15.218C12.2168 15.246 12.2688 15.275 12.3228 15.302L12.3528 15.317C12.5075 15.3957 12.6642 15.4704 12.8228 15.541L12.8548 15.554C13.0037 15.6195 13.154 15.6815 13.3058 15.74L13.3358 15.751C13.4388 15.791 13.5418 15.827 13.6458 15.863L13.6978 15.881L13.7858 15.91C13.8248 15.922 13.8638 15.936 13.9018 15.949C14.0108 15.987 14.1198 16.024 14.2338 16.044C22.1678 17.408 23.9998 11.068 23.9998 11.068C22.3488 13.536 19.1508 14.714 15.7388 13.794C15.5877 13.7527 15.4377 13.7077 15.2888 13.659C15.2485 13.6465 15.2085 13.6332 15.1688 13.619L15.1538 13.614C15.0484 13.5786 14.9438 13.5413 14.8398 13.502L14.8368 13.5C14.6643 13.4347 14.4935 13.3646 14.3248 13.29L14.2688 13.265C14.0722 13.1761 13.8787 13.0804 13.6888 12.978L13.6468 12.956L13.5268 12.892C13.4173 12.8308 13.3089 12.7674 13.2018 12.702C12.9903 12.5728 12.7835 12.436 12.5818 12.292C12.4362 12.1868 12.2931 12.0781 12.1528 11.966L12.1178 11.937C12.0974 11.9204 12.077 11.9038 12.0568 11.887C10.5628 10.663 9.37881 8.98998 8.81681 7.09398C8.22681 5.12598 8.35381 2.91798 9.37581 1.12598L8.11981 2.96598Z" fill="#8C8C8C"/>
<path d="M1.52389 5.63688C-0.600113 8.80688 -0.336113 12.9319 1.28689 16.2999C1.31689 16.3649 1.34989 16.4289 1.38189 16.4919L1.40589 16.5399L1.43589 16.5989C1.46104 16.6513 1.48772 16.703 1.51589 16.7539L1.52889 16.7789L1.59889 16.9089L1.61389 16.9359C1.66389 17.0279 1.71589 17.1199 1.76889 17.2119L1.78589 17.2419C1.86602 17.3817 1.94972 17.5194 2.03689 17.6549L2.05489 17.6849L2.11389 17.7779C2.19789 17.9079 2.28389 18.0389 2.37389 18.1679V18.1689C2.37602 18.172 2.37836 18.175 2.38089 18.1779L2.40489 18.2109L2.42489 18.2389C2.50289 18.3489 2.58189 18.4589 2.66289 18.5669L2.75289 18.6849C2.9489 18.9389 3.15164 19.1877 3.36089 19.4309L3.36689 19.4379L3.37189 19.4429L3.37889 19.4509C3.59104 19.6899 3.81048 19.9223 4.03689 20.1479L4.06689 20.1779L4.13789 20.2479C4.25122 20.3587 4.36657 20.4673 4.48389 20.5739L4.51689 20.6039L4.54289 20.6259C4.66804 20.7376 4.79472 20.8476 4.92289 20.9559L4.97889 21.0029C5.06389 21.0729 5.14989 21.1429 5.23689 21.2109L5.37389 21.3199C5.46989 21.3929 5.56589 21.4649 5.66289 21.5349L5.67889 21.5469L5.76889 21.6129L5.79689 21.6329C5.88489 21.6969 5.97389 21.7569 6.06389 21.8169L6.07789 21.8269C6.11824 21.854 6.15825 21.8817 6.19789 21.9099C6.36483 22.0195 6.53386 22.1258 6.70489 22.2289L6.75889 22.2609C6.9103 22.3503 7.06333 22.437 7.21789 22.5209L7.27089 22.5499L7.32989 22.5819C7.38889 22.6139 7.44689 22.6459 7.50689 22.6769L7.53189 22.6889L7.56189 22.7039L7.59589 22.7209C7.61589 22.7309 7.63689 22.7409 7.65789 22.7529C7.78189 22.8139 7.90589 22.8739 8.03189 22.9329L8.07889 22.9539L8.11089 22.9689C8.42338 23.1112 8.74128 23.2413 9.06389 23.3589L9.07389 23.3619L9.11589 23.3779C9.34386 23.4599 9.57394 23.5359 9.80589 23.6059C9.92189 23.6449 10.0389 23.6829 10.1589 23.7059C20.4359 25.6519 23.4209 17.2959 23.4209 17.2959C20.9139 20.6859 16.4639 21.5809 12.2469 20.5849C12.0882 20.5464 11.9314 20.5007 11.7769 20.4479L11.6589 20.4109C11.5069 20.3629 11.3559 20.3109 11.2059 20.2579L11.1439 20.2349C11.0089 20.1849 10.8769 20.1349 10.7439 20.0809L10.6319 20.0349C10.4871 19.9755 10.3434 19.9135 10.2009 19.8489L10.1549 19.8289C10.0194 19.766 9.88471 19.7013 9.75089 19.6349L9.70989 19.6129C9.68849 19.6027 9.66715 19.5924 9.64589 19.5819L9.43189 19.4689L9.36389 19.4329C9.34163 19.4207 9.3193 19.4087 9.29689 19.3969L9.17689 19.3309C9.06289 19.2679 8.95089 19.2009 8.83889 19.1339L8.79589 19.1089L8.72589 19.0689C8.55181 18.9615 8.37978 18.8508 8.20989 18.7369L8.16689 18.7069C7.74011 18.4223 7.33102 18.1121 6.94189 17.7779C6.823 17.6773 6.70565 17.575 6.58989 17.4709L6.57389 17.4559C6.42187 17.316 6.27251 17.1734 6.12589 17.0279C6.0412 16.9442 5.95786 16.8592 5.87589 16.7729L5.84189 16.7389C5.71237 16.6035 5.58568 16.4655 5.46189 16.3249L5.45589 16.3189L5.45389 16.3159C5.34789 16.1959 5.24389 16.0719 5.14189 15.9479L5.05989 15.8469C4.95521 15.7171 4.85286 15.5854 4.75289 15.4519C4.66489 15.3319 4.57789 15.2139 4.49289 15.0929C2.15289 11.7789 1.31189 7.20688 3.18289 3.45288L1.52389 5.63688Z" fill="#8C8C8C"/>
</g>
</g>
<defs>
<clipPath id="clip0_191_588">
<rect width="24" height="24" fill="white"/>
</clipPath>
</defs>
</svg>
