<svg width="29" height="26" viewBox="0 0 29 26" fill="none" xmlns="http://www.w3.org/2000/svg">
<path d="M23 8.59998L22.1 8.29998C22.1 8.09998 22.2 7.89998 22.2 7.69998C22.9 4.39998 22.4 1.69998 20.9 0.799978C19.4 -2.23815e-05 17 0.799978 14.6 2.89998C14.4 3.09998 14.1 3.29998 13.9 3.49998C13.7 3.39998 13.6 3.19998 13.4 3.09998C11 0.899977 8.5 -2.22027e-05 7 0.899978C5.5 1.69998 5.1 4.29998 5.7 7.39998C5.8 7.69998 5.8 7.99998 5.9 8.29998C5.5 8.39998 5.2 8.49998 4.9 8.59998C1.9 9.59998 0 11.3 0 12.9C0 14.6 2 16.4 5.1 17.4C5.3 17.5 5.6 17.6 5.9 17.6C5.8 17.9 5.7 18.3 5.7 18.6C5.1 21.7 5.6 24.1 7 25C8.5 25.9 11 25 13.5 22.8C13.7 22.6 13.9 22.4 14.1 22.3C14.3 22.5 14.6 22.8 14.9 23C17.3 25.1 19.6 25.9 21.1 25C22.6 24.1 23.1 21.5 22.5 18.3C22.5 18.1 22.4 17.8 22.3 17.5C22.5 17.4 22.7 17.4 22.8 17.3C26 16.2 28.1 14.5 28.1 12.8C28 11.3 26 9.69998 23 8.59998ZM15.5 3.89998C17.6 2.09998 19.5 1.39998 20.4 1.89998C21.3 2.39998 21.7 4.59998 21.1 7.49998C21.1 7.69998 21 7.89998 21 8.09998C19.8 7.79998 18.5 7.59998 17.3 7.49998C16.6 6.49998 15.8 5.49998 14.9 4.49998L15.5 3.89998ZM8.3 14.4C8.6 14.9 8.8 15.4 9.1 15.9C9.4 16.4 9.7 16.9 10 17.3C9.1 17.2 8.3 17.1 7.4 16.9C7.6 16.1 7.9 15.3 8.3 14.4ZM8.3 11.6C7.9 10.8 7.7 9.99998 7.4 9.19998C8.2 8.99998 9.1 8.89998 9.9 8.79998C9.6 9.29998 9.3 9.69998 9 10.2C8.8 10.6 8.5 11.1 8.3 11.6ZM8.9 13C9.3 12.2 9.7 11.5 10.1 10.7C10.5 9.99998 11 9.19998 11.5 8.49998C12.3 8.39998 13.2 8.39998 14.1 8.39998C15 8.39998 15.8 8.39998 16.7 8.49998C17.2 9.19998 17.6 9.89998 18 10.7C18.4 11.4 18.8 12.2 19.2 13C18.8 13.8 18.4 14.5 18 15.3C17.6 16 17.1 16.8 16.7 17.5C15.9 17.6 15 17.6 14.1 17.6C13.2 17.6 12.4 17.6 11.6 17.5C11.1 16.8 10.7 16.1 10.2 15.3C9.7 14.5 9.3 13.8 8.9 13ZM18.9 15.9C19.2 15.4 19.5 14.9 19.7 14.4C20.1 15.2 20.4 16 20.6 16.9C19.7 17.1 18.9 17.2 18 17.3C18.4 16.8 18.7 16.3 18.9 15.9ZM19.7 11.6C19.4 11.1 19.2 10.6 18.9 10.1C18.6 9.59998 18.3 9.19998 18.1 8.69998C19 8.79998 19.8 8.99998 20.7 9.09998C20.4 9.99998 20.1 10.8 19.7 11.6ZM14 5.29998C14.6 5.89998 15.1 6.59998 15.6 7.29998C14.5 7.19998 13.4 7.19998 12.3 7.29998C12.9 6.59998 13.5 5.89998 14 5.29998ZM7.6 1.89998C8.5 1.39998 10.6 2.09998 12.8 4.09998L13.2 4.49998C12.3 5.39998 11.5 6.39998 10.8 7.49998C9.5 7.59998 8.3 7.79998 7.1 8.09998C7 7.79998 7 7.49998 6.9 7.19998C6.3 4.49998 6.7 2.39998 7.6 1.89998ZM6.2 16.6C6 16.5 5.7 16.5 5.5 16.4C4.1 15.9 3 15.3 2.2 14.7C1.5 14.1 1.2 13.5 1.2 13C1.2 12 2.7 10.7 5.3 9.79998C5.6 9.69998 5.9 9.59998 6.3 9.49998C6.6 10.7 7 11.9 7.6 13C7 14.2 6.6 15.4 6.2 16.6ZM12.7 22.1C11.6 23.1 10.5 23.7 9.6 24.1C8.7 24.4 8.1 24.4 7.6 24.2C6.7 23.7 6.3 21.7 6.8 19.1C6.9 18.7 7 18.4 7 18C8.2 18.3 9.5 18.5 10.8 18.5C11.5 19.5 12.3 20.5 13.2 21.5C13 21.7 12.9 21.9 12.7 22.1ZM14 20.7C13.4 20.1 12.9 19.4 12.3 18.7H15.6C15.2 19.4 14.6 20.1 14 20.7ZM21.3 22.4C21.1 23.3 20.8 23.9 20.4 24.1C19.5 24.6 17.6 23.9 15.6 22.2C15.4 22 15.1 21.8 14.9 21.6C15.7 20.7 16.5 19.7 17.2 18.6C18.5 18.5 19.7 18.3 21 18C21.1 18.2 21.1 18.5 21.2 18.7C21.5 20.1 21.5 21.4 21.3 22.4ZM22.3 16.4C22.1 16.4 22 16.5 21.8 16.5C21.4 15.3 20.9 14.1 20.4 12.9C20.9 11.8 21.4 10.6 21.8 9.39998C22.1 9.49998 22.4 9.59998 22.6 9.69998C25.2 10.6 26.8 11.9 26.8 12.9C26.8 14.1 25.1 15.5 22.3 16.4Z" fill="white"/>
<path d="M13.9999 15.4999C14.4999 15.4999 14.9999 15.3999 15.3999 15.0999C15.7999 14.7999 16.0999 14.3999 16.2999 13.9999C16.4999 13.4999 16.4999 12.9999 16.3999 12.4999C16.2999 11.9999 16.0999 11.5999 15.6999 11.1999C15.3999 10.7999 14.8999 10.5999 14.3999 10.4999C13.8999 10.3999 13.3999 10.4999 12.8999 10.5999C12.3999 10.7999 11.9999 11.0999 11.7999 11.4999C11.4999 11.8999 11.3999 12.3999 11.3999 12.8999C11.3999 13.1999 11.4999 13.5999 11.5999 13.8999C11.6999 14.1999 11.8999 14.4999 12.0999 14.6999C12.2999 14.8999 12.5999 15.0999 12.8999 15.1999C13.2999 15.3999 13.6999 15.4999 13.9999 15.4999Z" fill="#8C8C8C"/>
</svg>
