<svg width="15" height="15" viewBox="0 0 15 15" fill="none" xmlns="http://www.w3.org/2000/svg">
<g clip-path="url(#clip0_188_553)">
<path d="M4.293 4L8.058 0.236L9.73 4H4.293ZM14.293 0L10.661 3.632L9.047 0H14.293ZM0.236 8.058L4 9.73V4.293L0.236 8.058ZM3.632 10.661L0 9.047V14.293L3.632 10.661ZM5 9.293L9.293 5H5V9.293ZM15 13.731L11.093 4.614L15 0.707V13.731ZM14.048 14.048L10.331 5.376L5.376 10.331L14.048 14.048ZM4.614 11.093L13.731 15H0.707L4.614 11.093Z" fill="black"/>
</g>
<defs>
<clipPath id="clip0_188_553">
<rect width="15" height="15" fill="white"/>
</clipPath>
</defs>
</svg>
