<svg width="24" height="24" viewBox="0 0 24 24" fill="none" xmlns="http://www.w3.org/2000/svg">
<g clip-path="url(#clip0_191_579)">
<path d="M5.07081e-05 12V11.983C5.07081e-05 10.22 0.385051 8.54596 1.07605 7.04296L1.04605 7.11696L6.77305 22.797C4.77374 21.8315 3.08187 20.3296 1.88605 18.459L1.85705 18.411C0.638636 16.5314 -0.00658735 14.3379 5.07081e-05 12.098V11.995V12ZM20.0991 11.391C20.0991 11.603 20.0841 11.812 20.0571 12.016L20.0601 11.992C20.0195 12.2691 19.9624 12.5436 19.8891 12.814L19.9001 12.765C19.8221 13.077 19.7624 13.3056 19.7211 13.451C19.6797 13.5963 19.5897 13.9033 19.4511 14.372C19.3111 14.84 19.2201 15.1416 19.1781 15.277L17.9921 19.271L13.6541 6.38196C14.1341 6.35063 14.5921 6.30896 15.0281 6.25696C15.1157 6.253 15.2004 6.22394 15.272 6.17324C15.3436 6.12254 15.3992 6.05233 15.4321 5.97096L15.4331 5.96796C15.4693 5.8912 15.4848 5.80622 15.4777 5.7216C15.4707 5.63697 15.4415 5.5557 15.3931 5.48596L15.3941 5.48796C15.3469 5.41433 15.28 5.35547 15.2009 5.31815C15.1218 5.28083 15.0339 5.26655 14.9471 5.27696H14.9491L11.7491 5.43696C10.9691 5.4263 9.91838 5.37296 8.59705 5.27696C8.48374 5.26376 8.36953 5.29258 8.27605 5.35796L8.27805 5.35696C8.19538 5.41278 8.13295 5.4938 8.10005 5.58796L8.09905 5.59096C8.0667 5.68476 8.05879 5.78526 8.07605 5.88296V5.87896C8.09218 5.97804 8.14155 6.06868 8.21605 6.13596C8.29957 6.21139 8.40664 6.25556 8.51905 6.26096H8.52005L9.76805 6.38596L11.6411 11.506L9.01905 19.371L4.65005 6.37996C5.13005 6.34863 5.58805 6.30696 6.02405 6.25496C6.11171 6.251 6.19639 6.22194 6.26801 6.17124C6.33964 6.12054 6.39518 6.05033 6.42805 5.96896L6.42905 5.96596C6.46534 5.8892 6.48075 5.80422 6.47373 5.7196C6.46671 5.63497 6.4375 5.5537 6.38905 5.48396L6.39005 5.48596C6.34291 5.41233 6.27597 5.35347 6.19691 5.31615C6.11784 5.27883 6.02986 5.26455 5.94305 5.27496H5.94505L2.74505 5.43496C2.67172 5.43496 2.55205 5.4323 2.38605 5.42696C2.22005 5.42163 2.08472 5.41896 1.98005 5.41896C3.04879 3.78805 4.49765 2.44112 6.20205 1.49396L6.26305 1.46296C8.02068 0.499735 9.9938 -0.00223184 11.9981 0.0039629C13.5731 0.0039629 15.0781 0.307963 16.4561 0.858963L16.3751 0.829963C17.7506 1.373 19.0148 2.16375 20.1051 3.16296L20.0961 3.15496H19.9001C19.3431 3.15496 18.8441 3.39896 18.5021 3.78496L18.5001 3.78696C18.1461 4.16696 17.9291 4.67896 17.9291 5.24096V5.27096V5.26896C17.9291 5.40096 17.9401 5.53096 17.9621 5.65696L17.9601 5.64296C17.9807 5.76763 18.0014 5.8793 18.0221 5.97796C18.0551 6.11496 18.0981 6.23496 18.1521 6.34796L18.1471 6.33696C18.2097 6.47696 18.2567 6.5863 18.2881 6.66496C18.3491 6.80196 18.4121 6.91696 18.4821 7.02696L18.4751 7.01596C18.5691 7.17196 18.6341 7.2813 18.6701 7.34396C18.7061 7.40663 18.7814 7.5313 18.8961 7.71796L19.1141 8.07696C19.7091 9.01696 20.0721 10.156 20.0961 11.378V11.385L20.0991 11.391ZM12.2031 13.046L15.9011 23.142C15.9131 23.208 15.9411 23.267 15.9811 23.315V23.314C14.7046 23.7706 13.3587 24.0027 12.0031 24H11.9751C10.8083 24.0012 9.64812 23.8256 8.53405 23.479L8.61605 23.501L12.2031 13.046ZM22.5181 6.24596C23.4961 7.99909 24.0065 9.97446 24.0001 11.982V12.007V12.006V12.093C24.0001 14.28 23.3971 16.326 22.3471 18.074L22.3761 18.021C21.3354 19.8024 19.8561 21.2879 18.0791 22.336L18.0231 22.367L21.6901 11.781C22.2001 10.512 22.5311 9.04296 22.6091 7.50696L22.6101 7.47396V7.43896C22.6103 7.02294 22.5769 6.60758 22.5101 6.19696L22.5161 6.24096L22.5181 6.24596Z" fill="#8C8C8C"/>
</g>
<defs>
<clipPath id="clip0_191_579">
<rect width="24" height="24" fill="white"/>
</clipPath>
</defs>
</svg>
